#!OML:ASF Y:\EmotionMaleHayes\Project 1\Capture day 1\Session 1\Male1.ASF
:FULLY-SPECIFIED
:DEGREES
65
root 8.30825 15.8435 -0.172645 114.045 102.188 122.735
lowerback 12.4186 5.5633 7.74413
upperback 1.06089 8.65422 1.97714
thorax -4.97226 4.15583 -3.58812
lowerneck -22.8049 -3.94093 -3.02776
upperneck 28.6908 -5.73262 4.75183
head 13.8055 -1.97775 1.38913
rclavicle 4.90952e-014 1.27222e-014
rhumerus -45.8736 22.6152 -99.6255
rradius 102.227
rwrist -19.529
rhand -25.9593 -24.5758
rfingers 7.12502
rthumb 0.585091 -54.5547
lclavicle 4.90952e-014 1.27222e-014
lhumerus -81.3607 -18.1933 81.8512
lradius 68.5979
lwrist 9.44262
lhand -39.4464 -29.5325
lfingers 7.12502
lthumb -12.434 0.0776389
rfemur 19.9632 2.9269 24.4805
rtibia 80.0343
rfoot -15.8782 -4.72045
rtoes -1.12848
lfemur -22.6806 10.0809 -7.00255
ltibia 24.2854
lfoot 2.57933 9.95079
ltoes 20.2778
66
root 8.72375 15.7399 -0.120727 113.459 99.6377 122.484
lowerback 13.7525 4.91572 4.33194
upperback 1.13356 7.37728 1.69824
thorax -6.15642 3.55234 -1.99689
lowerneck -23.1092 -3.50677 -3.14661
upperneck 28.4823 -5.07421 4.79558
head 13.7521 -1.70929 1.54235
rclavicle -4.72114e-014 7.95139e-016
rhumerus -47.1562 21.4286 -100.139
rradius 99.4767
rwrist -19.3572
rhand -25.8692 -24.8711
rfingers 7.12502
rthumb 0.672117 -54.8498
lclavicle -4.72114e-014 7.95139e-016
lhumerus -78.1407 -17.6777 83.1657
lradius 67.745
lwrist 9.22762
lhand -39.0606 -29.2593
lfingers 7.12502
lthumb -12.0621 0.373081
rfemur 16.6452 1.08291 21.8998
rtibia 84.3404
rfoot -16.378 -5.45732
rtoes 3.34326
lfemur -26.4677 8.47729 -9.91429
ltibia 33.5371
lfoot -1.62177 9.80511
ltoes 11.544
67
root 9.2007 15.6452 -0.0688134 125.677 93.6588 134.99
lowerback 13.9432 4.433 -2.45414
upperback 1.62947 5.60448 0.371636
thorax -6.34027 2.8402 0.684381
lowerneck -23.5322 -3.05589 -3.22729
upperneck 28.068 -4.4633 5.01915
head 13.6422 -1.43449 1.74757
rclavicle 2.96438e-014 3.18055e-015
rhumerus -48.028 19.9322 -100.378
rradius 96.4571
rwrist -19.394
rhand -25.8362 -26.0934
rfingers 7.12502
rthumb 0.703962 -56.072
lclavicle 2.96438e-014 3.18055e-015
lhumerus -73.8819 -17.3554 84.1244
lradius 66.3994
lwrist 9.12526
lhand -38.6327 -29.3561
lfingers 7.12502
lthumb -11.6494 0.300039
rfemur 13.7742 -1.26218 14.9429
rtibia 87.5026
rfoot -16.758 -5.82002
rtoes 5.24426
lfemur -28.3523 5.30611 -17.3852
ltibia 39.3198
lfoot -4.57778 11.1608
ltoes 6.17481
68
root 9.66451 15.5634 -0.0464708 83.0521 88.0732 92.4437
lowerback 13.8987 3.79541 -7.54753
upperback 2.3955 3.9863 -0.947717
thorax -5.67662 2.14573 2.48602
lowerneck -24.5492 -2.69819 -3.10484
upperneck 27.5151 -4.05201 5.19461
head 13.5997 -1.2286 1.85608
rclavicle -2.13694e-015 -2.38542e-015
rhumerus -48.2905 18.3497 -100.388
rradius 92.7328
rwrist -18.6219
rhand -26.8418 -27.0384
rfingers 7.12502
rthumb -0.267302 -57.0179
lclavicle -2.13694e-015 -2.38542e-015
lhumerus -68.3886 -17.556 84.675
lradius 64.7072
lwrist 8.98216
lhand -38.1501 -29.5456
lfingers 7.12502
lthumb -11.184 0.136368
rfemur 10.0803 -3.76351 9.2125
rtibia 90.8205
rfoot -17.0606 -5.69028
rtoes 5.23052
lfemur -27.9061 4.53912 -23.647
ltibia 41.2943
lfoot -6.07111 9.20118
ltoes 7.94889
69
root 10.1303 15.5382 -0.0338326 125.552 87.6 135
lowerback 13.977 2.97802 -7.32681
upperback 3.0093 2.97837 -1.22029
thorax -4.93268 1.62586 2.29217
lowerneck -25.5294 -2.45482 -2.5811
upperneck 27.1326 -3.88016 5.08204
head 13.616 -1.11821 1.74291
rclavicle 1.17283e-014 1.66979e-014
rhumerus -48.5165 15.9705 -100.051
rradius 88.6461
rwrist -17.9776
rhand -29.2233 -28.716
rfingers 7.12502
rthumb -2.56739 -58.6803
lclavicle 1.17283e-014 1.66979e-014
lhumerus -62.9614 -18.6318 84.9628
lradius 63.038
lwrist 8.6545
lhand -37.649 -29.9081
lfingers 7.12502
lthumb -10.7007 -0.200626
rfemur 5.92946 -5.44879 9.96828
rtibia 93.7615
rfoot -17.033 -4.9191
rtoes 5.83526
lfemur -26.5233 4.91694 -23.8782
ltibia 41.7576
lfoot -7.18077 7.24837
ltoes 9.95294
70
root 10.5962 15.5475 -0.048556 144.907 86.7239 154.29
lowerback 14.0391 2.3297 -6.61709
upperback 3.30928 2.2354 -1.61074
thorax -4.53586 1.24362 1.63001
lowerneck -25.8507 -2.28657 -1.87871
upperneck 26.8909 -3.84125 4.80578
head 13.5555 -1.0706 1.51573
rclavicle -1.27719e-014 5.725e-014
rhumerus -49.0654 12.8681 -99.1403
rradius 84.1135
rwrist -16.2975
rhand -28.7595 -28.7777
rfingers 7.12502
rthumb -2.11941 -58.7469
lclavicle -1.27719e-014 5.725e-014
lhumerus -58.2184 -20.0833 84.9498
lradius 61.6509
lwrist 7.40482
lhand -36.5827 -28.514
lfingers 7.12502
lthumb -9.67205 1.24396
rfemur 1.51181 -6.5443 10.7593
rtibia 96.0861
rfoot -16.939 -3.78452
rtoes 5.30773
lfemur -25.1459 4.65814 -23.9523
ltibia 41.7902
lfoot -7.53603 6.16158
ltoes 9.00929
71
root 11.0703 15.6093 -0.0794176 155.498 85.5021 165.289
lowerback 14.5362 1.65627 -5.87049
upperback 3.58543 1.43712 -1.8669
thorax -4.42858 0.845424 1.08059
lowerneck -25.6597 -2.13071 -1.43222
upperneck 26.7381 -3.69198 4.47521
head 13.4283 -1.01322 1.33544
rclavicle 3.08116e-015 2.46493e-014
rhumerus -50.2921 10.751 -98.5492
rradius 80.3336
rwrist -17.8245
rhand -30.4335 -31.0743
rfingers 7.12502
rthumb -3.7361 -61.0213
lclavicle 3.08116e-015 2.46493e-014
lhumerus -54.0706 -21.2681 85.0296
lradius 60.5436
lwrist 6.39696
lhand -35.5307 -26.9208
lfingers 7.12502
lthumb -8.65694 2.8817
rfemur -1.8437 -7.54916 11.4493
rtibia 97.0683
rfoot -17.0099 -2.6504
rtoes 4.60744
lfemur -23.1514 3.48096 -24.0533
ltibia 42.3498
lfoot -8.8513 5.48208
ltoes 8.59445
72
root 11.5007 15.6591 -0.0899344 149.913 85.4768 160.224
lowerback 15.4639 1.57793 -6.22691
upperback 3.68652 1.22011 -2.02534
thorax -4.8116 0.75678 1.13338
lowerneck -25.0343 -1.88681 -1.34389
upperneck 26.4952 -3.31663 4.32934
head 13.1814 -0.873847 1.33117
rclavicle -2.98177e-015 7.95139e-015
rhumerus -51.7628 9.42534 -97.7529
rradius 76.7507
rwrist -20.2333
rhand -32.0984 -33.6932
rfingers 7.12502
rthumb -5.34376 -63.6058
lclavicle -2.98177e-015 7.95139e-015
lhumerus -50.2787 -21.8778 85.2133
lradius 60.2833
lwrist 5.98348
lhand -34.4618 -25.0473
lfingers 7.12502
lthumb -7.62528 4.79528
rfemur -5.93286 -6.81307 11.9623
rtibia 97.8054
rfoot -17.0225 -1.62937
rtoes 4.28298
lfemur -21.1919 3.51995 -24.3969
ltibia 43.1056
lfoot -10.5877 5.34762
ltoes 8.8678
73
root 11.9364 15.6941 -0.0946198 149.44 84.7683 160.592
lowerback 16.5454 1.20182 -6.66736
upperback 3.92741 0.599457 -2.02788
thorax -5.09734 0.471167 1.48667
lowerneck -24.3388 -1.57591 -1.48899
upperneck 26.3435 -2.82628 4.42234
head 12.9651 -0.669927 1.48045
rclavicle 6.90777e-015 1.59028e-014
rhumerus -53.4324 8.72835 -96.7887
rradius 74.2885
rwrist -24.0905
rhand -33.3629 -37.4551
rfingers 7.12502
rthumb -6.56453 -67.3333
lclavicle 6.90777e-015 1.59028e-014
lhumerus -46.6493 -22.0122 85.4085
lradius 60.5599
lwrist 6.17229
lhand -34.2128 -24.6538
lfingers 7.12502
lthumb -7.38495 5.1973
rfemur -9.26942 -6.94789 12.3265
rtibia 97.3722
rfoot -16.854 -0.802887
rtoes 3.17761
lfemur -19.0879 2.79663 -24.7874
ltibia 44.2475
lfoot -12.5471 5.31393
ltoes 7.68796
74
root 12.3761 15.7275 -0.110772 145.905 83.7534 157.759
lowerback 17.3053 0.839805 -7.47698
upperback 4.21614 -0.0425964 -2.12455
thorax -5.13923 0.174549 1.96884
lowerneck -23.9243 -1.32912 -1.73149
upperneck 26.5095 -2.39617 4.50628
head 12.9366 -0.493304 1.63483
rclavicle 9.93923e-016 0
rhumerus -55.2042 8.38726 -95.7523
rradius 72.3057
rwrist -27.8024
rhand -34.6325 -37.7844
rfingers 7.12502
rthumb -7.79008 -67.6208
lclavicle 9.93923e-016 0
lhumerus -43.1783 -22.0733 85.7132
lradius 61.3775
lwrist 7.15614
lhand -33.2852 -23.2782
lfingers 7.12502
lthumb -6.48958 6.60237
rfemur -12.5885 -7.13272 11.9931
rtibia 96.272
rfoot -16.6176 -0.224534
rtoes 1.77618
lfemur -17.0428 1.84112 -25.8577
ltibia 45.3044
lfoot -14.5732 5.42121
ltoes 5.71096
